<?xml version="1.0" standalone="no"?>
<!DOCTYPE svg PUBLIC "-//W3C//DTD SVG 20010904//EN"
 "http://www.w3.org/TR/2001/REC-SVG-20010904/DTD/svg10.dtd">
<svg version="1.0" xmlns="http://www.w3.org/2000/svg"
 width="2560.000000pt" height="2560.000000pt" viewBox="0 0 2560.000000 2560.000000"
 preserveAspectRatio="xMidYMid meet">
<metadata>
Created by potrace 1.14, written by Peter Selinger 2001-2017
</metadata>
<g transform="translate(0.000000,2560.000000) scale(0.100000,-0.100000)"
fill="#000000" stroke="none">
<path d="M12690 25568 c-2 -5 -3 -11 -5 -15 -1 -5 -7 -21 -14 -38 -7 -16 -22
-57 -33 -90 -12 -33 -25 -71 -31 -85 -6 -14 -11 -27 -11 -30 -10 -41 -61 -177
-70 -182 -6 -4 -8 -8 -4 -8 4 0 -4 -33 -18 -72 -14 -40 -27 -79 -29 -86 -3 -7
-4 -14 -5 -17 0 -3 -6 -18 -15 -35 -8 -16 -17 -37 -18 -47 -2 -10 -9 -31 -15
-46 -7 -16 -12 -34 -12 -41 0 -6 -4 -16 -8 -21 -5 -6 -21 -48 -37 -95 -15 -47
-32 -94 -38 -105 -6 -11 -11 -24 -12 -30 -1 -15 -36 -117 -48 -140 -6 -11 -12
-27 -13 -35 -1 -8 -18 -60 -38 -115 -21 -55 -44 -120 -52 -145 -8 -25 -19 -54
-24 -65 -12 -26 -24 -69 -21 -74 2 -2 -1 -7 -6 -10 -6 -5 -94 -248 -108 -301
-11 -40 -50 -135 -57 -138 -5 -2 -6 -8 -2 -13 3 -5 2 -15 -3 -21 -4 -7 -8 -15
-8 -18 0 -3 -6 -18 -12 -35 -6 -16 -55 -154 -109 -305 -53 -151 -101 -286
-107 -300 -6 -14 -11 -27 -11 -30 -4 -23 -43 -126 -49 -131 -5 -3 -8 -10 -7
-15 3 -16 -23 -84 -32 -84 -5 0 -7 -4 -4 -9 5 -8 -11 -65 -31 -111 -3 -8 -7
-18 -8 -22 -2 -5 -4 -10 -5 -13 -1 -3 -3 -8 -5 -12 -1 -5 -4 -15 -7 -23 -24
-63 -60 -170 -57 -172 1 -2 -4 -14 -11 -28 -8 -14 -15 -29 -16 -35 -4 -20 -49
-140 -54 -145 -3 -3 -6 -12 -7 -20 -1 -15 -47 -148 -63 -185 -5 -11 -14 -39
-21 -62 -7 -24 -17 -43 -22 -43 -6 0 -8 -3 -4 -6 5 -5 -10 -58 -30 -104 -3 -8
-7 -22 -9 -30 -2 -8 -7 -23 -12 -35 -13 -27 -51 -140 -52 -150 0 -3 -6 -18
-15 -35 -8 -16 -17 -37 -18 -47 -4 -17 -7 -26 -24 -70 -3 -10 -7 -20 -8 -23
-1 -3 -7 -18 -13 -33 -7 -16 -12 -31 -12 -35 0 -6 -62 -176 -77 -212 -3 -8 -7
-21 -9 -28 -6 -31 -40 -118 -47 -123 -5 -3 -8 -10 -7 -15 0 -5 -2 -18 -5 -29
-4 -11 -8 -28 -9 -38 -2 -11 -7 -22 -12 -25 -5 -4 -10 -15 -12 -25 -2 -9 -23
-72 -47 -140 -25 -67 -45 -128 -45 -134 0 -7 -4 -13 -8 -13 -4 0 -8 -8 -9 -17
-1 -27 -67 -207 -78 -215 -5 -4 -7 -8 -2 -8 4 0 1 -13 -8 -30 -8 -16 -16 -33
-16 -37 0 -23 -12 -53 -21 -53 -5 0 -7 -4 -4 -9 6 -9 -12 -72 -23 -81 -3 -3
-7 -12 -8 -20 -1 -8 -10 -39 -21 -67 -11 -29 -18 -53 -15 -53 3 0 1 -6 -5 -13
-6 -7 -18 -35 -27 -62 -9 -28 -19 -57 -22 -65 -4 -8 -7 -17 -8 -20 -1 -3 -6
-20 -10 -37 -4 -18 -11 -33 -16 -33 -5 0 -8 -3 -7 -7 3 -10 -50 -170 -65 -198
-6 -11 -12 -27 -13 -35 -2 -18 -64 -191 -72 -205 -4 -5 -7 -13 -8 -17 -1 -5
-3 -10 -4 -13 -1 -3 -3 -8 -4 -12 -11 -43 -32 -102 -43 -119 -7 -11 -10 -24
-7 -27 4 -4 2 -12 -3 -19 -6 -7 -16 -30 -22 -50 l-12 -38 -37 16 c-20 8 -40
20 -44 27 -4 7 -8 8 -8 4 0 -5 -12 -1 -27 7 -45 25 -228 108 -229 104 -1 -1
-11 6 -23 16 -12 11 -21 15 -21 11 0 -4 -9 0 -20 10 -11 10 -20 15 -20 11 0
-3 -26 7 -57 23 -83 42 -237 116 -243 116 -3 1 -62 29 -132 63 -70 34 -132 62
-138 62 -5 0 -10 5 -10 10 0 6 -3 9 -7 8 -5 -1 -19 3 -33 9 -14 6 -29 11 -34
11 -5 0 -12 4 -15 9 -7 10 -62 37 -98 48 -13 3 -23 11 -23 16 0 5 -6 9 -14 9
-8 0 -41 13 -73 29 -32 15 -96 47 -143 69 -47 22 -139 66 -205 98 -66 32 -122
59 -125 59 -3 1 -36 17 -75 35 -38 19 -73 33 -77 32 -5 -1 -8 2 -8 8 0 5 -4
10 -9 10 -5 0 -40 14 -78 32 -37 18 -71 31 -75 30 -5 -1 -8 2 -8 6 0 4 -16 14
-35 21 -19 7 -35 17 -35 22 0 6 -4 8 -8 5 -5 -3 -49 15 -98 39 -49 25 -94 45
-99 45 -6 0 -17 6 -23 12 -7 7 -16 13 -20 14 -20 3 -72 27 -72 33 0 4 -6 8
-12 8 -7 0 -65 25 -128 56 -63 31 -164 79 -225 107 -60 29 -131 63 -157 76
-27 13 -48 20 -48 16 0 -4 -4 -2 -8 3 -7 11 -161 87 -199 99 -13 4 -23 11 -23
16 0 5 -7 7 -15 4 -8 -4 -15 -1 -15 5 0 6 -4 11 -9 11 -5 0 -63 26 -128 57
-65 32 -120 58 -123 58 -3 1 -52 24 -110 52 -231 111 -321 153 -331 153 -5 0
-9 5 -9 10 0 6 -6 10 -13 10 -7 0 -35 11 -63 24 -27 14 -112 54 -189 91 -77
37 -185 88 -240 114 -55 27 -136 65 -180 86 -252 119 -356 169 -407 196 -32
16 -60 29 -63 29 -3 0 -60 26 -128 59 -259 125 -337 161 -347 161 -5 0 -10 5
-10 10 0 6 -6 10 -13 10 -7 0 -39 13 -70 29 -31 16 -59 26 -62 23 -3 -3 -5 0
-5 6 0 6 -14 13 -30 17 -17 4 -30 11 -30 16 0 5 -3 8 -7 7 -5 -1 -32 10 -61
25 -30 15 -60 27 -68 27 -8 0 -14 5 -14 10 0 6 -3 9 -7 8 -10 -2 -86 34 -94
45 -3 5 -10 9 -15 9 -16 1 -48 15 -172 76 -67 33 -122 58 -122 55 0 -2 -16 5
-36 17 -19 12 -37 21 -39 18 -2 -2 30 -72 71 -156 41 -84 74 -154 74 -156 0
-2 29 -64 64 -138 35 -73 67 -143 71 -155 3 -13 11 -23 16 -23 5 0 9 -5 9 -12
0 -6 18 -48 39 -92 83 -172 125 -261 126 -266 1 -5 30 -67 140 -295 111 -231
148 -310 148 -322 0 -7 3 -13 7 -13 4 0 19 -28 35 -62 16 -35 58 -124 93 -198
96 -202 155 -326 197 -415 37 -79 91 -191 195 -410 80 -168 122 -259 122 -265
0 -3 6 -12 13 -20 7 -8 14 -18 15 -22 2 -19 14 -44 28 -60 8 -10 12 -18 8 -18
-4 0 -1 -10 6 -22 7 -13 11 -26 10 -30 -1 -5 2 -8 6 -8 9 0 37 -70 34 -82 -1
-5 2 -8 8 -8 5 0 10 -7 10 -15 0 -8 5 -15 10 -15 6 0 10 -11 10 -25 0 -14 4
-25 8 -25 5 0 20 -27 33 -60 13 -33 27 -60 31 -60 5 0 8 -6 8 -13 0 -8 18 -51
40 -96 22 -45 40 -86 40 -91 0 -6 5 -10 10 -10 6 0 10 -4 10 -9 0 -5 5 -22 12
-38 6 -15 11 -31 10 -35 -1 -5 2 -8 7 -8 8 0 24 -37 22 -52 -1 -5 3 -8 9 -8 6
0 9 -3 8 -7 -2 -8 27 -71 108 -235 23 -47 40 -89 37 -92 -4 -3 -1 -6 5 -6 7 0
12 -7 12 -16 0 -9 10 -30 22 -47 13 -18 22 -32 20 -32 -5 0 27 -72 82 -186 30
-60 51 -109 48 -109 -4 0 -2 -4 3 -8 9 -6 36 -56 40 -72 0 -3 6 -15 13 -26 6
-12 8 -24 5 -28 -3 -3 -2 -6 4 -6 6 0 18 -18 27 -39 8 -22 37 -86 65 -143 27
-57 79 -166 116 -243 37 -77 81 -169 97 -205 17 -36 53 -112 81 -170 28 -58
52 -107 52 -110 1 -3 15 -33 32 -67 17 -34 29 -64 25 -67 -3 -3 0 -6 6 -6 7 0
12 -4 12 -10 0 -5 18 -46 40 -92 22 -46 40 -88 40 -95 0 -7 8 -17 17 -22 10
-6 15 -11 10 -11 -4 0 6 -26 22 -59 17 -32 27 -61 24 -65 -4 -3 -1 -6 5 -6 6
0 14 -10 18 -22 3 -13 29 -68 55 -123 27 -56 49 -106 49 -113 0 -7 5 -12 10
-12 6 0 10 -9 10 -20 0 -11 5 -20 10 -20 6 0 10 -6 10 -14 0 -7 11 -33 24 -58
23 -43 23 -60 1 -65 -5 -2 -58 -20 -117 -41 -60 -22 -108 -37 -108 -34 0 2 -6
0 -12 -5 -13 -11 -85 -37 -103 -38 -5 -1 -26 -8 -45 -17 -71 -31 -92 -38 -100
-33 -5 3 -10 2 -12 -2 -1 -5 -34 -19 -73 -32 -38 -13 -75 -28 -81 -33 -7 -5
-16 -7 -21 -6 -4 2 -26 -4 -48 -14 -35 -14 -66 -25 -80 -28 -2 -1 -28 -11 -57
-22 -29 -11 -69 -24 -88 -30 -19 -5 -41 -15 -47 -20 -7 -6 -13 -8 -13 -4 0 4
-13 0 -30 -9 -16 -9 -30 -13 -30 -9 0 4 -6 2 -12 -3 -7 -6 -38 -18 -68 -27
-30 -10 -64 -21 -75 -26 -61 -25 -105 -39 -105 -32 0 4 -4 2 -8 -3 -4 -6 -34
-19 -67 -29 -33 -11 -64 -22 -70 -25 -5 -3 -13 -6 -17 -7 -5 -1 -10 -3 -13 -4
-3 -1 -8 -3 -12 -5 -10 -2 -41 -14 -71 -26 -13 -5 -27 -7 -32 -4 -5 3 -10 1
-12 -4 -2 -7 -185 -76 -223 -84 -5 -2 -14 -5 -20 -8 -8 -5 -106 -40 -125 -44
-3 -1 -16 -6 -30 -12 -14 -5 -61 -22 -105 -37 -44 -15 -87 -30 -95 -34 -8 -3
-17 -6 -20 -7 -3 -1 -12 -4 -20 -8 -73 -28 -129 -45 -134 -40 -3 4 -6 2 -6 -4
0 -6 -10 -13 -22 -16 -22 -5 -298 -101 -328 -114 -8 -3 -18 -7 -22 -8 -5 -2
-10 -4 -13 -5 -3 -1 -8 -3 -12 -4 -5 -1 -14 -5 -20 -9 -7 -5 -13 -6 -13 -2 0
3 -13 -1 -30 -10 -16 -9 -30 -13 -30 -9 0 4 -6 2 -12 -3 -11 -9 -68 -31 -103
-39 -5 -2 -28 -10 -50 -18 -69 -26 -240 -87 -250 -90 -5 -2 -23 -8 -39 -15
-16 -6 -36 -13 -45 -15 -9 -2 -23 -6 -31 -9 -51 -22 -189 -70 -213 -74 -15 -3
-27 -8 -27 -12 0 -4 -24 -13 -53 -20 -28 -8 -58 -19 -66 -25 -8 -6 -16 -10
-17 -9 -5 3 -25 -4 -91 -29 -29 -11 -55 -20 -57 -20 -3 1 -33 -10 -67 -23 -34
-14 -65 -22 -70 -20 -4 3 -10 1 -13 -4 -6 -9 -121 -51 -139 -51 -4 0 -20 -6
-36 -14 -16 -9 -31 -12 -35 -9 -3 4 -6 2 -6 -4 0 -9 -43 -24 -75 -27 -5 -1
-12 -3 -15 -6 -3 -3 -23 -11 -45 -19 -22 -8 -51 -18 -65 -24 -14 -6 -29 -11
-35 -12 -5 -1 -20 -6 -32 -10 -12 -4 -25 -6 -29 -5 -4 1 -10 -4 -14 -11 -4 -6
-21 -12 -38 -13 -17 0 -28 -4 -26 -7 3 -5 -87 -37 -108 -39 -4 0 -28 -9 -53
-20 -25 -11 -45 -16 -45 -12 0 4 -4 3 -8 -3 -6 -9 -139 -60 -182 -70 -8 -2
-15 -4 -15 -5 0 -1 -7 -3 -15 -5 -8 -2 -31 -10 -51 -19 -20 -8 -39 -12 -43 -9
-3 4 -6 2 -6 -4 0 -5 -6 -10 -12 -10 -7 -1 -44 -13 -83 -28 -38 -14 -77 -28
-85 -30 -8 -2 -22 -5 -30 -7 -8 -1 -18 -7 -21 -11 -3 -5 -12 -10 -20 -11 -62
-14 -80 -20 -85 -27 -3 -5 -10 -7 -15 -4 -5 4 -9 1 -9 -6 0 -7 -2 -10 -5 -7
-3 3 -43 -8 -88 -24 -194 -70 -253 -90 -262 -93 -5 -1 -17 -5 -25 -8 -21 -9
-202 -74 -275 -99 -33 -11 -74 -26 -92 -34 -17 -8 -37 -14 -45 -14 -8 0 -18
-3 -22 -7 -4 -5 -12 -9 -17 -9 -5 -1 -10 -2 -11 -4 -2 -1 -10 -3 -18 -6 -12
-3 -94 -32 -160 -57 -8 -3 -37 -13 -65 -22 -27 -9 -58 -21 -68 -26 -10 -5 -22
-7 -26 -4 -5 3 -11 -1 -14 -9 -4 -9 4 -17 21 -22 35 -10 32 -9 65 -22 15 -7
40 -15 55 -18 15 -4 32 -10 37 -14 6 -3 30 -13 55 -20 25 -7 51 -18 57 -23 7
-5 13 -6 13 -2 0 4 7 2 15 -5 8 -7 15 -9 15 -5 0 4 6 2 13 -4 8 -6 22 -12 33
-14 10 -2 29 -9 42 -15 12 -7 22 -10 22 -6 0 3 7 1 15 -6 8 -7 15 -9 15 -5 0
4 7 2 15 -5 8 -7 15 -9 15 -5 0 4 6 3 13 -3 6 -5 28 -15 47 -20 43 -13 148
-50 175 -62 23 -10 132 -49 155 -55 24 -6 383 -134 405 -144 11 -6 38 -15 60
-21 22 -7 54 -18 70 -25 17 -7 44 -17 60 -21 17 -4 35 -11 41 -15 6 -5 19 -10
30 -12 20 -4 45 -13 79 -27 11 -5 40 -16 65 -24 47 -15 245 -86 315 -112 22
-8 47 -17 55 -19 8 -2 16 -4 18 -5 1 -2 7 -4 12 -5 6 -1 12 -4 15 -5 3 -1 8
-3 13 -5 4 -1 15 -5 24 -9 9 -4 22 -9 30 -10 7 -2 20 -6 28 -9 8 -4 42 -16 75
-27 33 -12 67 -24 75 -27 8 -4 17 -7 20 -7 3 -1 28 -9 55 -19 52 -19 63 -23
80 -27 6 -1 16 -6 22 -12 7 -6 13 -7 13 -3 0 4 6 3 13 -3 7 -6 24 -13 37 -16
23 -5 170 -57 215 -76 24 -11 196 -71 210 -74 6 -1 20 -7 31 -14 12 -6 24 -9
27 -6 3 3 13 1 24 -5 23 -14 152 -61 179 -67 12 -2 35 -11 50 -19 16 -8 36
-15 45 -15 9 0 19 -3 23 -7 4 -5 12 -9 17 -9 5 -1 11 -3 14 -4 3 -1 8 -3 13
-5 4 -1 15 -5 24 -9 9 -4 22 -9 30 -10 13 -3 21 -6 63 -22 11 -4 22 -8 25 -9
3 -1 12 -4 20 -8 8 -3 37 -13 65 -22 27 -9 55 -21 62 -27 7 -6 13 -8 13 -5 0
5 183 -56 240 -80 8 -3 20 -7 25 -9 6 -1 62 -21 125 -44 63 -23 129 -46 145
-52 17 -5 37 -12 45 -16 8 -3 17 -6 20 -6 3 -1 19 -6 35 -13 55 -21 240 -87
250 -89 6 -1 37 -12 70 -25 33 -13 63 -24 68 -25 4 -1 9 -3 12 -4 3 -1 9 -3
14 -4 5 0 13 -4 17 -8 4 -5 14 -8 22 -8 8 0 28 -6 45 -14 41 -18 100 -37 108
-33 3 1 12 -3 20 -9 8 -6 32 -17 54 -23 22 -7 49 -16 60 -21 28 -11 58 -23 70
-25 6 -2 41 -15 79 -29 37 -14 72 -23 77 -20 5 3 9 1 9 -4 0 -5 28 -18 62 -30
35 -11 101 -34 148 -52 47 -17 90 -32 95 -33 6 -2 16 -6 23 -10 6 -5 12 -5 12
-1 0 3 6 2 13 -3 6 -6 26 -14 42 -18 38 -10 34 -9 70 -24 17 -7 35 -14 40 -15
6 -1 16 -5 23 -9 6 -5 12 -5 12 -1 0 3 6 2 13 -3 6 -6 37 -18 67 -28 30 -10
61 -23 69 -29 8 -6 16 -10 18 -8 6 5 58 -11 72 -22 8 -6 17 -10 20 -10 8 2 19
-1 76 -22 28 -10 52 -19 55 -19 3 0 28 -9 55 -19 73 -26 79 -29 90 -32 34 -10
147 -53 152 -58 4 -3 12 -6 19 -6 7 0 25 -5 41 -12 15 -6 30 -12 33 -13 39 -9
110 -39 110 -45 0 -5 -7 -15 -15 -24 -9 -8 -14 -17 -13 -18 4 -4 -34 -91 -42
-98 -4 -3 -17 -32 -31 -65 -13 -33 -27 -62 -30 -65 -4 -3 -19 -34 -34 -69 -14
-35 -33 -74 -42 -87 -8 -13 -16 -29 -17 -36 -1 -7 -19 -46 -38 -85 -20 -40
-34 -73 -31 -73 2 0 -3 -7 -11 -16 -9 -8 -16 -22 -16 -30 0 -8 -4 -14 -10 -14
-5 0 -7 -7 -4 -15 3 -8 0 -17 -8 -20 -8 -3 -14 -15 -15 -26 -1 -12 -10 -30
-20 -41 -10 -11 -17 -22 -16 -24 1 -2 -7 -25 -19 -51 -12 -27 -22 -50 -23 -53
-1 -3 -29 -61 -62 -130 -33 -69 -64 -135 -67 -147 -4 -13 -12 -23 -17 -23 -5
0 -9 -7 -9 -15 0 -9 -8 -30 -17 -48 -9 -18 -18 -39 -19 -47 -2 -8 -8 -16 -13
-18 -6 -2 -11 -8 -11 -13 0 -6 -19 -49 -41 -97 -104 -218 -145 -305 -194 -407
-29 -60 -56 -120 -59 -132 -4 -13 -12 -23 -17 -23 -5 0 -8 -3 -7 -7 1 -5 -7
-28 -19 -53 -11 -25 -23 -53 -26 -62 -4 -10 -10 -18 -15 -18 -4 0 -8 -10 -9
-22 -1 -11 -7 -24 -13 -28 -7 -4 -11 -10 -10 -14 1 -4 -15 -41 -36 -84 -54
-113 -68 -146 -66 -154 1 -5 -2 -8 -7 -8 -8 0 -24 -37 -22 -52 1 -5 -4 -8 -9
-8 -6 0 -10 -4 -10 -9 0 -11 -80 -184 -89 -191 -3 -3 -7 -13 -9 -23 -2 -10
-12 -33 -23 -52 -12 -19 -17 -35 -12 -35 4 0 3 -4 -3 -8 -6 -4 -22 -32 -36
-62 -14 -30 -43 -91 -63 -135 -21 -44 -40 -82 -44 -85 -3 -3 -7 -11 -9 -18 -2
-13 -42 -99 -138 -299 -24 -50 -44 -96 -44 -102 0 -6 -4 -11 -10 -11 -5 0 -10
-5 -10 -11 0 -5 -21 -54 -46 -107 -26 -53 -58 -122 -72 -152 -13 -30 -30 -58
-36 -62 -6 -4 -7 -8 -3 -8 4 0 2 -10 -5 -23 -7 -12 -13 -24 -13 -27 -1 -3 -25
-54 -55 -115 -30 -60 -54 -112 -55 -115 0 -3 -27 -59 -59 -125 -32 -66 -65
-137 -73 -157 -8 -21 -18 -38 -22 -38 -4 0 -8 -6 -8 -12 0 -7 -19 -51 -41 -98
-23 -47 -42 -89 -43 -95 -2 -5 -15 -32 -31 -58 -15 -26 -28 -52 -28 -58 0 -5
-13 -36 -29 -67 -17 -31 -35 -69 -40 -84 -6 -16 -14 -28 -19 -28 -5 0 -9 -6
-9 -14 0 -7 -14 -43 -31 -79 -18 -36 -32 -70 -32 -75 0 -5 -7 -15 -15 -22 -8
-7 -15 -21 -15 -31 0 -9 -7 -25 -16 -33 -8 -9 -13 -16 -10 -16 3 0 -3 -16 -14
-35 -11 -20 -20 -40 -20 -46 0 -5 -8 -21 -17 -36 -10 -14 -18 -33 -19 -41 -2
-8 -9 -19 -16 -23 -7 -5 -9 -9 -5 -9 5 0 -1 -17 -12 -37 -27 -51 -141 -292
-141 -299 0 -3 -9 -19 -21 -35 -11 -16 -18 -29 -15 -29 2 0 -11 -32 -30 -70
-19 -39 -34 -75 -34 -80 0 -6 -4 -10 -10 -10 -5 0 -10 -6 -10 -14 0 -8 -15
-45 -34 -82 -18 -38 -43 -91 -55 -117 -12 -26 -48 -102 -80 -167 -32 -66 -56
-121 -54 -124 3 -2 26 6 51 19 87 44 284 135 293 135 5 0 9 5 9 10 0 6 9 10
20 10 11 0 20 4 20 10 0 5 3 9 8 8 4 -1 30 9 57 22 28 13 52 24 55 25 22 7
146 71 148 77 2 4 10 4 18 1 8 -3 14 0 14 6 0 6 5 11 10 11 6 0 42 16 81 35
39 19 77 35 85 35 8 0 14 5 14 10 0 6 4 10 10 10 14 0 144 63 151 73 3 5 8 8
10 6 2 -1 26 8 53 19 27 12 52 22 57 22 5 0 9 5 9 12 0 6 3 9 6 5 3 -3 21 3
40 14 19 10 41 19 49 19 8 0 15 4 15 9 0 5 10 13 23 17 12 4 56 23 97 43 41
19 78 34 83 33 4 -1 7 1 7 6 0 4 27 18 60 32 33 14 60 29 60 33 0 5 4 6 9 2 5
-3 17 2 25 11 9 8 16 13 16 9 0 -3 17 3 38 14 20 11 96 48 167 82 72 33 151
71 177 84 25 13 49 21 52 18 3 -4 6 -1 6 5 0 7 8 12 19 12 10 0 24 7 31 15 7
8 20 15 30 15 10 0 23 7 30 15 7 9 15 13 18 10 3 -2 19 4 36 14 17 10 43 21
59 25 15 3 27 11 27 16 0 6 4 10 10 10 9 0 98 41 325 149 66 32 135 64 153 72
17 8 32 17 32 20 0 3 6 6 13 6 6 0 75 31 152 67 187 89 185 88 185 98 0 5 4 7
9 4 4 -3 46 13 92 36 46 23 86 43 89 43 5 1 113 52 275 131 55 27 102 49 105
50 3 1 15 5 28 9 12 4 22 11 22 16 0 5 3 8 8 7 13 -4 52 13 52 23 0 5 3 8 8 7
10 -2 42 12 175 76 64 31 120 56 126 56 6 0 11 4 11 10 0 5 3 9 8 8 4 -1 43
15 87 37 44 21 82 39 85 40 3 1 32 14 65 30 33 16 63 28 68 27 4 -1 7 3 7 8 0
6 8 10 19 10 10 0 24 7 31 15 7 8 18 15 24 15 6 0 38 14 69 30 32 17 65 30 73
30 8 0 14 5 14 10 0 6 4 10 10 10 5 0 52 20 104 45 53 25 100 45 106 45 5 0
10 5 10 10 0 6 5 10 11 10 5 0 37 13 69 29 32 16 61 27 64 23 3 -3 6 0 6 6 0
7 4 12 9 12 6 0 77 32 158 71 81 39 177 85 213 102 36 17 68 30 73 29 4 -1 7
3 7 9 0 5 5 7 10 4 6 -3 10 -1 10 6 0 7 3 9 7 6 3 -4 15 0 25 10 10 9 18 13
18 9 0 -4 10 0 22 8 12 9 30 16 39 16 10 0 19 5 21 11 2 5 10 11 18 13 8 1 76
32 150 68 208 101 295 142 300 143 3 0 52 24 110 52 154 75 180 85 185 70 3
-7 11 -32 19 -57 16 -49 92 -265 103 -290 6 -15 7 -18 14 -50 2 -8 7 -17 11
-20 4 -3 9 -15 11 -25 1 -11 5 -24 8 -30 4 -5 12 -28 18 -50 7 -22 16 -49 21
-60 5 -11 39 -105 75 -210 36 -104 71 -201 76 -215 6 -14 19 -50 29 -80 10
-30 33 -93 50 -140 18 -47 35 -96 37 -110 3 -14 9 -29 13 -35 3 -5 13 -30 20
-55 7 -25 17 -49 20 -55 4 -5 10 -23 14 -40 4 -16 14 -43 21 -60 11 -24 34
-91 40 -115 1 -3 5 -12 8 -20 8 -18 30 -80 97 -270 28 -80 55 -154 61 -165 5
-11 11 -30 12 -43 0 -12 5 -22 9 -22 4 0 8 -10 8 -23 0 -13 4 -27 9 -32 5 -6
14 -28 20 -50 7 -22 16 -49 21 -60 5 -11 39 -105 75 -210 36 -104 71 -201 77
-215 5 -14 16 -45 25 -70 8 -25 17 -52 20 -60 4 -8 7 -18 7 -22 1 -3 4 -10 9
-14 4 -4 7 -13 7 -20 0 -7 5 -25 12 -41 6 -15 12 -32 14 -38 2 -10 19 -58 34
-100 4 -11 12 -31 18 -45 9 -20 32 -89 37 -110 1 -3 5 -12 8 -20 16 -39 80
-218 86 -245 4 -17 13 -40 19 -51 6 -12 8 -24 5 -28 -3 -3 -1 -6 5 -6 7 0 12
-11 12 -24 0 -14 4 -27 9 -30 5 -3 11 -16 14 -28 2 -13 23 -75 46 -138 23 -63
44 -123 46 -132 2 -9 8 -25 13 -35 5 -10 23 -61 41 -113 17 -52 36 -103 41
-112 6 -10 10 -25 10 -33 0 -8 4 -23 10 -33 5 -9 28 -71 51 -137 22 -66 45
-129 49 -140 5 -11 14 -38 21 -60 7 -22 16 -45 20 -50 5 -6 10 -23 13 -38 3
-15 12 -42 21 -60 9 -17 20 -48 25 -67 4 -19 20 -66 35 -105 15 -38 29 -79 32
-90 2 -11 9 -30 14 -42 5 -13 13 -33 18 -45 5 -13 32 -90 61 -173 29 -82 56
-159 60 -170 25 -62 39 -105 35 -105 -3 0 1 -10 9 -23 8 -12 17 -33 20 -47 2
-14 12 -42 20 -62 9 -21 13 -38 9 -38 -5 0 -3 -4 2 -8 6 -4 21 -38 34 -77 12
-38 27 -79 32 -90 8 -20 58 -161 63 -180 2 -5 8 -22 14 -36 6 -15 12 -35 14
-45 2 -11 5 -21 8 -24 4 -4 47 -118 54 -145 2 -5 6 -19 10 -30 5 -11 12 -31
16 -45 4 -14 11 -34 16 -45 4 -11 8 -24 10 -30 1 -5 17 -48 35 -95 17 -47 34
-95 36 -107 3 -13 10 -23 15 -23 5 0 6 5 3 10 -3 6 -1 10 5 10 6 0 9 4 5 9 -3
5 -1 12 4 15 4 3 12 20 16 38 4 18 9 35 10 38 1 3 7 19 14 35 7 17 13 38 14
47 1 10 4 18 7 18 6 0 31 80 30 94 -1 5 2 12 7 15 6 5 57 136 67 176 2 6 6 17
9 25 4 8 14 38 22 65 9 28 23 64 31 81 7 17 15 40 17 50 2 11 11 36 20 58 9
21 17 44 17 52 0 7 4 16 10 19 6 3 10 14 10 23 0 9 14 53 31 97 17 44 32 87
34 95 1 8 8 29 15 45 6 17 13 35 14 40 2 6 8 23 14 38 7 16 12 32 12 36 0 4 7
21 15 38 8 16 16 38 18 49 2 10 10 33 16 49 7 17 14 35 15 40 2 6 6 17 9 25
19 50 49 137 51 145 1 6 4 15 7 20 5 8 50 136 54 155 1 3 6 16 12 30 5 14 22
61 37 105 15 44 32 89 36 100 10 23 20 58 19 65 0 3 6 18 15 34 8 16 13 33 10
38 -3 4 0 8 5 8 6 0 11 6 11 13 0 7 23 75 51 152 28 77 52 147 54 155 2 8 4
16 5 18 2 1 3 5 5 10 1 4 4 14 8 22 3 8 20 56 37 105 17 50 35 99 40 110 12
29 54 148 56 160 1 6 14 40 27 78 14 37 22 67 19 67 -4 0 -2 4 3 8 6 4 21 41
35 82 13 41 29 78 35 82 5 4 7 8 3 8 -4 0 4 30 18 68 14 37 27 74 29 82 2 8 4
16 5 18 2 1 3 5 5 10 1 4 4 14 8 22 16 43 49 137 52 150 2 8 11 33 20 54 9 22
18 48 20 58 2 9 10 32 19 50 12 27 24 61 31 88 1 3 4 12 7 20 57 153 78 215
78 226 0 8 5 14 12 14 6 0 9 3 6 6 -6 5 30 122 51 169 10 23 61 164 90 250 11
33 29 84 40 113 10 28 17 52 15 52 -2 0 2 10 10 23 11 18 21 45 31 87 0 3 6
15 13 27 7 13 10 23 6 23 -3 0 -1 7 6 15 6 8 9 19 5 25 -3 5 -2 10 4 10 5 0
13 15 17 32 10 41 9 40 17 58 3 8 16 42 27 75 12 33 26 70 32 81 5 12 11 33
11 47 1 14 5 23 10 20 6 -3 9 6 7 20 -1 1 11 33 25 71 15 39 27 75 28 80 1 6
4 13 7 16 3 3 21 52 40 110 19 58 37 110 40 115 3 6 16 42 29 80 12 39 27 79
31 90 13 30 61 168 65 185 2 8 4 16 5 18 2 1 3 5 5 10 1 4 7 21 14 37 7 17 14
37 16 45 3 8 20 58 40 110 19 52 37 102 39 110 1 8 8 26 13 40 6 14 9 28 6 32
-2 5 0 8 5 8 9 0 37 86 34 103 -1 4 3 7 8 7 6 0 10 6 9 13 -2 6 5 29 14 51 9
21 17 41 17 45 0 4 14 42 30 85 17 43 28 82 24 87 -3 5 -1 9 5 9 6 0 13 11 17
25 3 14 8 25 10 25 2 0 53 -24 113 -54 61 -29 113 -51 116 -48 3 3 5 -1 5 -8
0 -7 3 -10 6 -7 4 4 20 -3 35 -14 16 -11 29 -18 29 -16 0 3 39 -14 88 -38 161
-79 267 -129 280 -131 8 -1 23 -11 34 -21 11 -10 22 -17 24 -15 3 2 33 -11 68
-28 35 -16 69 -30 75 -30 6 0 11 -5 11 -12 0 -6 3 -8 6 -5 4 3 16 0 28 -8 11
-8 28 -15 38 -15 10 0 18 -3 18 -8 0 -8 91 -52 109 -52 6 0 11 -4 11 -10 0 -5
6 -10 13 -10 7 0 39 -14 70 -30 32 -17 65 -30 73 -30 8 0 14 -4 14 -10 0 -5 5
-10 10 -10 6 0 54 -21 108 -47 53 -26 100 -46 105 -45 4 1 7 -3 7 -8 0 -5 3
-10 8 -9 15 2 52 -14 52 -22 0 -5 3 -8 8 -7 4 1 20 -4 35 -10 16 -7 33 -12 38
-12 5 0 9 -4 9 -10 0 -5 4 -10 10 -10 5 0 46 -18 91 -40 45 -22 88 -40 95 -40
7 0 14 -3 16 -7 3 -7 72 -42 83 -43 3 0 35 -16 71 -35 36 -19 72 -35 80 -35 8
0 14 -4 14 -10 0 -5 7 -10 15 -10 17 0 56 -20 66 -34 4 -5 12 -5 18 -2 6 4 11
3 11 -3 0 -5 9 -13 21 -16 11 -4 68 -30 127 -58 59 -28 109 -52 112 -52 15 -4
86 -41 88 -47 2 -5 11 -8 20 -8 10 0 26 -7 36 -15 10 -8 23 -12 27 -9 5 3 9 1
9 -3 0 -5 23 -17 50 -28 28 -11 50 -24 50 -29 0 -5 3 -7 6 -4 3 4 30 -7 61
-23 30 -16 61 -29 69 -29 8 0 14 -4 14 -10 0 -5 5 -10 11 -10 5 0 56 -22 112
-49 56 -27 147 -70 202 -96 55 -26 131 -63 170 -81 38 -19 76 -34 82 -34 7 0
13 -5 13 -11 0 -5 4 -8 9 -5 5 4 11 3 13 -2 1 -4 38 -23 81 -41 42 -19 77 -38
77 -42 0 -5 3 -8 8 -7 12 2 140 -56 351 -160 41 -21 77 -37 80 -38 3 0 62 -28
131 -61 69 -33 159 -76 200 -96 41 -19 133 -62 203 -96 70 -34 132 -61 138
-61 5 0 9 -4 9 -10 0 -5 6 -10 13 -10 7 0 30 -9 52 -20 22 -11 45 -20 52 -20
7 0 13 -4 13 -10 0 -5 4 -10 10 -10 5 0 67 -28 137 -61 130 -62 175 -82 182
-79 2 1 8 -5 13 -14 5 -8 15 -13 23 -10 8 4 15 1 15 -5 0 -6 5 -11 11 -11 6 0
46 -18 90 -40 43 -22 79 -37 79 -34 0 3 7 -2 16 -10 8 -9 19 -14 24 -11 4 3
13 -2 20 -10 7 -8 16 -12 21 -9 5 3 9 0 9 -5 0 -6 3 -10 8 -9 4 1 57 -22 117
-51 183 -88 260 -125 265 -126 17 -4 66 -31 71 -38 3 -5 9 -8 13 -7 11 3 66
-22 66 -30 0 -4 16 -11 35 -14 19 -4 35 -11 35 -16 0 -6 6 -10 13 -10 7 0 39
-13 70 -30 32 -16 65 -30 73 -30 8 0 14 -4 14 -9 0 -7 13 -14 50 -25 3 -1 11
-5 18 -9 6 -5 12 -5 12 0 0 4 4 3 8 -3 4 -7 24 -19 44 -27 37 -15 37 -15 28 6
-5 12 -20 46 -34 74 -14 29 -26 57 -26 63 0 5 -4 10 -10 10 -5 0 -10 6 -10 13
0 7 -13 39 -30 72 -16 33 -30 66 -30 73 0 6 -4 12 -10 12 -5 0 -10 4 -10 9 0
6 -26 63 -57 128 -31 65 -57 120 -57 123 -1 3 -19 41 -40 85 -55 115 -100 209
-102 215 -9 30 -30 70 -37 70 -4 0 -5 4 -2 10 3 5 1 10 -4 10 -6 0 -10 3 -9 8
1 4 -10 32 -24 62 -25 54 -109 231 -152 320 -11 25 -25 48 -31 52 -5 4 -7 8
-3 8 4 0 -12 39 -36 88 -24 48 -69 143 -101 212 -32 69 -63 128 -69 132 -6 4
-7 8 -3 8 5 0 -1 17 -12 38 -21 38 -143 295 -142 299 0 2 -17 38 -38 80 -22
43 -64 132 -96 198 -31 66 -84 176 -116 244 -33 69 -61 130 -62 135 -1 6 -4
13 -7 16 -9 9 -54 105 -52 112 1 3 -5 12 -13 18 -8 7 -15 18 -15 25 0 7 -9 30
-20 52 -23 44 -145 303 -180 381 -13 28 -27 52 -32 52 -5 0 -8 6 -7 13 2 6
-30 80 -70 162 -39 83 -86 179 -103 215 -17 36 -48 100 -70 144 -21 43 -38 84
-38 92 0 8 -4 14 -9 14 -5 0 -13 10 -17 23 -3 12 -31 74 -61 137 -108 225
-133 280 -133 286 0 3 -9 19 -21 35 -11 16 -18 29 -15 29 3 0 -6 21 -19 46
-14 26 -25 53 -25 60 0 7 -5 14 -11 16 -5 2 -11 10 -13 18 -2 8 -19 49 -39 91
-21 42 -37 82 -37 88 0 6 -3 11 -8 11 -4 0 -13 15 -21 33 -7 17 -34 77 -60
132 -26 55 -54 115 -62 133 -8 17 -18 32 -22 32 -5 0 -5 5 -2 11 4 5 0 18 -8
27 -12 14 -27 43 -32 62 -1 5 -22 48 -138 290 -23 47 -40 88 -39 93 1 4 -3 7
-9 7 -5 0 -7 4 -4 10 3 6 1 10 -4 10 -6 0 -11 9 -11 20 0 11 -4 20 -10 20 -5
0 -10 6 -10 13 0 18 -50 120 -62 128 -5 3 -9 9 -8 13 3 14 -33 96 -43 96 -6 0
-8 3 -5 6 3 3 -9 37 -28 75 -19 38 -34 73 -34 78 0 5 -7 14 -15 21 -9 7 -13
15 -10 18 3 3 -2 16 -10 29 -9 13 -12 23 -8 23 5 0 4 4 -2 8 -9 6 -65 116 -65
126 0 5 104 40 109 37 2 -2 7 1 10 6 6 8 116 49 156 58 11 3 29 9 40 14 11 5
112 42 225 81 113 39 233 83 267 96 34 13 67 24 73 24 6 0 21 5 33 12 12 7 28
13 36 14 11 2 130 44 231 82 8 3 18 6 23 7 4 2 9 4 12 5 3 1 9 3 14 4 5 0 13
4 17 9 4 4 13 7 20 7 7 0 25 5 41 11 33 14 205 75 423 151 85 30 165 60 178
67 12 6 22 10 22 7 0 -2 28 7 63 20 34 14 73 28 86 30 14 3 29 8 35 12 22 13
136 50 136 44 0 -4 4 -2 8 3 4 6 37 20 74 32 36 13 79 28 95 34 15 7 35 14 43
15 8 2 58 20 110 39 52 20 102 38 110 40 8 2 16 4 18 5 1 2 5 3 10 5 50 14 62
18 62 25 0 4 6 7 13 6 14 -1 150 44 157 53 3 3 10 6 15 6 19 0 145 47 150 55
3 5 12 7 19 4 8 -3 17 -1 21 5 3 6 13 11 22 11 8 0 29 6 46 14 18 8 64 24 102
36 39 13 75 25 80 29 6 3 15 6 20 7 34 7 251 89 253 96 2 4 8 6 13 3 4 -3 22
1 39 10 16 8 30 13 30 9 0 -4 6 -2 13 3 6 5 53 22 102 38 50 17 93 34 96 38 3
5 8 8 10 6 5 -3 132 38 174 56 24 11 124 45 145 50 3 1 19 7 35 14 17 7 57 22
89 32 33 11 65 24 73 30 7 6 13 9 13 6 0 -5 147 44 165 55 6 3 25 9 43 13 17
3 32 11 32 16 0 6 4 8 9 5 8 -5 29 1 96 29 11 5 25 9 30 10 6 0 35 10 65 22
74 28 93 36 105 39 6 1 53 18 105 37 52 19 131 46 175 61 44 15 89 31 100 37
12 6 27 11 35 13 8 2 28 8 43 14 16 7 35 12 43 12 8 0 14 5 14 12 0 6 3 9 6 5
4 -3 36 5 73 19 36 14 71 27 76 28 6 2 17 6 25 9 19 8 101 37 120 42 52 15
146 51 151 58 3 5 8 8 10 7 2 -1 22 3 44 9 22 6 44 10 49 10 5 0 12 3 15 8 3
4 44 21 91 36 47 16 94 33 105 38 11 5 43 16 70 25 28 9 61 21 75 27 14 6 27
11 30 12 3 1 20 6 38 10 17 4 32 12 32 18 0 6 3 8 6 4 7 -6 193 58 207 72 5 5
-5 12 -25 16 -18 4 -37 10 -43 13 -5 4 -19 8 -30 9 -10 2 -23 9 -27 16 -4 6
-8 8 -8 4 0 -4 -9 -3 -21 3 -11 6 -30 13 -42 15 -12 3 -31 9 -42 14 -11 6 -99
37 -195 71 -96 33 -183 65 -192 70 -10 6 -26 10 -36 10 -10 0 -23 5 -30 12 -7
7 -12 8 -12 4 0 -5 -6 -4 -12 1 -11 9 -126 50 -163 59 -9 3 -156 56 -195 71
-8 4 -18 7 -22 8 -5 2 -10 4 -13 5 -3 1 -8 3 -12 5 -5 1 -15 4 -23 8 -8 3 -37
13 -65 22 -27 10 -59 21 -70 25 -11 5 -67 25 -125 45 -58 20 -118 42 -135 48
-16 7 -32 12 -35 12 -5 0 -93 32 -125 45 -11 4 -49 18 -85 30 -36 12 -74 26
-85 30 -11 4 -49 18 -85 30 -36 12 -74 26 -85 30 -11 4 -36 13 -55 20 -19 7
-44 16 -55 22 -12 5 -27 10 -35 12 -8 2 -22 6 -30 9 -8 3 -62 22 -120 43 -58
20 -146 52 -197 70 -51 19 -94 34 -97 34 -3 0 -17 5 -33 12 -15 6 -30 12 -33
13 -37 11 -95 31 -190 65 -63 23 -125 45 -137 47 -13 3 -23 10 -23 16 0 6 -3
8 -6 5 -6 -6 -90 19 -109 32 -5 4 -31 13 -57 20 -27 7 -48 17 -48 22 0 5 -3 7
-8 4 -6 -4 -61 13 -122 37 -8 3 -35 13 -60 21 -66 22 -192 66 -215 76 -20 8
-179 65 -225 80 -14 4 -34 11 -45 16 -11 4 -24 8 -30 10 -11 3 -231 82 -255
91 -8 4 -17 7 -20 8 -19 4 -87 29 -95 34 -5 3 -17 6 -25 8 -8 1 -23 6 -35 11
-11 6 -33 15 -50 20 -16 6 -70 25 -120 42 -112 39 -115 40 -118 37 -2 -1 -15
6 -30 16 -15 9 -27 15 -27 12 0 -4 -47 11 -105 35 -11 5 -101 37 -200 71 -99
35 -182 67 -183 71 -2 5 -8 6 -13 3 -5 -4 -23 1 -41 9 -33 15 -201 75 -293
104 -27 9 -53 20 -56 25 -3 5 -9 8 -13 8 -3 -1 -7 -1 -8 0 -2 0 -11 2 -21 4
-10 2 -26 7 -35 11 -9 4 -21 8 -27 9 -12 3 -278 99 -350 126 -27 10 -62 21
-77 25 -16 3 -28 11 -28 17 0 6 -3 8 -6 4 -4 -3 -22 0 -40 8 -19 8 -34 12 -34
10 0 -2 -25 7 -55 20 -30 14 -58 24 -60 24 -3 -1 -18 4 -33 9 -64 25 -258 94
-267 96 -5 1 -14 4 -20 7 -5 4 -23 9 -40 13 -40 10 -47 24 -27 60 9 17 17 33
17 36 1 3 11 24 23 48 12 23 19 42 15 42 -5 0 -3 4 3 8 5 4 20 28 32 55 12 26
32 68 44 95 12 26 26 50 31 53 5 3 8 9 6 13 -3 9 53 129 64 137 5 3 8 8 7 10
-1 2 4 18 11 34 7 17 12 33 11 38 -1 4 2 7 8 7 5 0 10 5 10 11 0 6 15 41 34
79 19 37 32 71 29 74 -4 3 -1 6 5 6 7 0 12 7 12 15 0 9 11 33 25 55 14 22 25
42 25 45 0 5 50 114 130 280 78 162 100 212 100 224 0 6 4 11 8 11 4 0 17 21
27 48 11 26 32 70 47 98 15 29 24 54 21 58 -4 3 -1 6 5 6 7 0 12 9 12 20 0 11
5 20 10 20 6 0 10 5 10 11 0 6 17 45 37 87 21 42 38 79 38 82 1 3 29 62 63
132 34 70 62 130 62 134 0 3 9 18 20 34 11 15 16 30 12 34 -3 4 -2 10 3 14 6
4 24 36 40 72 17 36 33 67 38 68 4 2 7 9 7 16 0 8 15 44 34 82 32 65 76 157
183 384 25 52 67 140 93 195 26 55 53 115 61 133 8 17 17 32 21 32 5 0 7 3 6
8 -2 8 21 59 90 203 149 310 185 389 182 398 -1 2 2 7 7 10 7 5 43 71 49 91 8
28 30 70 36 70 4 0 8 6 8 14 0 8 14 43 32 77 18 35 33 66 33 69 1 3 18 40 38
82 20 42 37 82 37 88 0 5 5 10 10 10 6 0 10 4 10 10 0 5 13 37 29 69 16 33 26
62 23 65 -3 4 0 6 6 6 7 0 12 4 12 9 0 5 30 72 66 148 36 76 82 172 101 213
20 41 64 134 99 207 65 134 81 171 82 187 0 5 4 12 9 15 9 7 29 47 93 186 23
50 55 116 71 148 16 31 25 57 21 57 -4 0 -1 4 6 9 7 4 14 15 16 23 1 8 9 27
19 41 9 15 17 33 17 41 0 8 5 16 10 18 6 2 12 13 13 26 0 12 4 22 8 22 8 0 24
42 20 49 -2 2 2 7 7 10 7 5 46 80 57 111 1 3 10 23 20 45 10 22 18 43 17 48
-1 4 2 7 8 7 5 0 10 5 10 10 0 6 23 56 50 112 28 56 50 106 50 111 0 6 7 18
16 28 8 9 16 26 17 38 1 11 7 23 15 26 8 3 12 12 9 19 -3 8 -2 16 2 18 10 3
51 91 46 96 -2 2 -16 -3 -32 -11 -15 -9 -73 -37 -128 -62 -55 -26 -117 -56
-137 -66 -21 -11 -38 -17 -38 -12 0 4 -4 3 -8 -3 -4 -7 -41 -27 -82 -47 -41
-19 -111 -52 -155 -73 -44 -21 -83 -37 -87 -36 -5 1 -8 -2 -8 -8 0 -5 -8 -10
-18 -10 -10 0 -27 -7 -38 -15 -12 -8 -24 -11 -28 -8 -3 3 -6 2 -6 -4 0 -8 -56
-38 -90 -48 -11 -3 -186 -87 -200 -96 -8 -5 -22 -12 -30 -15 -8 -4 -51 -24
-95 -45 -44 -21 -87 -40 -95 -41 -8 -2 -17 -6 -20 -9 -7 -9 -163 -83 -172 -81
-3 1 -12 -5 -18 -13 -7 -8 -16 -15 -20 -15 -4 0 -28 -9 -54 -20 -25 -12 -48
-20 -51 -20 -3 0 -13 -6 -22 -15 -8 -9 -22 -14 -29 -11 -8 3 -14 2 -14 -2 0
-5 -37 -26 -82 -47 -46 -21 -148 -70 -228 -109 -80 -38 -147 -70 -150 -71 -14
-2 -86 -40 -91 -48 -3 -5 -8 -7 -10 -6 -7 5 -99 -36 -99 -43 0 -5 -5 -8 -10
-8 -11 0 -94 -38 -222 -100 -42 -21 -79 -36 -82 -32 -3 3 -6 0 -6 -6 0 -6 -17
-16 -37 -23 -21 -7 -47 -18 -59 -26 -11 -7 -24 -10 -27 -6 -4 3 -7 2 -7 -4 0
-5 -24 -20 -52 -33 -29 -13 -108 -50 -176 -82 -67 -32 -126 -58 -131 -58 -5 0
-14 -7 -21 -15 -7 -8 -16 -13 -20 -10 -5 3 -15 -2 -24 -10 -8 -9 -17 -15 -18
-15 -2 1 -16 -4 -33 -11 -16 -7 -33 -12 -37 -11 -5 1 -8 -2 -8 -8 0 -5 -4 -10
-9 -10 -5 0 -58 -23 -118 -52 -59 -28 -110 -53 -113 -53 -3 -1 -26 -12 -52
-24 -26 -12 -51 -21 -54 -21 -4 1 -10 -2 -13 -7 -3 -4 -26 -18 -51 -30 -134
-65 -262 -123 -273 -126 -6 -1 -14 -5 -17 -8 -3 -3 -36 -21 -75 -38 -38 -18
-100 -48 -138 -67 -37 -19 -74 -34 -81 -34 -8 0 -16 -5 -18 -11 -2 -5 -10 -11
-18 -13 -16 -2 -131 -57 -140 -66 -3 -3 -14 -7 -25 -8 -11 -2 -27 -9 -35 -16
-8 -6 -26 -17 -40 -23 -14 -6 -38 -16 -55 -24 -16 -7 -33 -12 -37 -11 -5 1 -8
-3 -8 -9 0 -5 -4 -7 -10 -4 -5 3 -10 1 -10 -4 0 -6 -5 -11 -10 -11 -6 0 -61
-25 -123 -55 -61 -30 -116 -55 -122 -55 -6 0 -17 -6 -23 -12 -7 -7 -16 -13
-20 -14 -4 0 -24 -8 -44 -18 -21 -9 -39 -15 -41 -14 -2 2 -11 -5 -21 -15 -10
-9 -21 -15 -26 -12 -4 3 -13 -2 -20 -10 -7 -8 -21 -15 -31 -15 -11 0 -19 -4
-19 -10 0 -5 -7 -10 -15 -10 -8 0 -41 -13 -72 -29 -128 -65 -203 -100 -203
-95 0 3 -12 -3 -27 -13 -25 -17 -59 -34 -88 -44 -5 -2 -38 -18 -73 -36 -35
-18 -70 -33 -78 -33 -8 0 -14 -4 -14 -9 0 -5 -13 -12 -30 -16 -16 -4 -30 -11
-30 -16 0 -6 -4 -7 -10 -4 -5 3 -10 1 -10 -4 0 -6 -3 -10 -7 -9 -5 2 -33 -9
-63 -24 -234 -113 -360 -171 -369 -168 -2 1 -7 -2 -10 -7 -7 -9 -79 -44 -85
-40 -2 1 -13 -7 -25 -17 -12 -11 -21 -16 -21 -13 0 4 -17 -2 -37 -13 -51 -26
-65 -28 -69 -10 -9 39 -38 115 -46 118 -4 2 -6 7 -3 11 4 7 -7 41 -50 156 -5
11 -9 25 -11 30 -1 6 -19 55 -39 110 -20 55 -43 120 -51 145 -9 25 -18 52 -21
60 -4 8 -7 17 -8 20 -1 3 -4 12 -8 20 -3 8 -17 49 -32 90 -14 41 -28 82 -32
90 -8 19 -8 20 -18 55 -4 17 -13 39 -19 50 -5 11 -11 22 -11 25 -2 10 -26 85
-35 105 -4 11 -13 34 -18 50 -6 17 -14 39 -18 50 -4 11 -8 23 -9 28 -2 4 -3 8
-5 10 -1 1 -3 9 -5 17 -5 18 -43 128 -52 150 -3 8 -5 18 -5 23 1 4 -2 7 -6 7
-5 0 -9 6 -9 13 0 6 -17 59 -38 117 -20 58 -54 150 -73 205 -20 55 -40 102
-44 103 -5 2 -6 7 -3 11 5 9 -27 106 -38 118 -4 3 -7 15 -7 25 0 10 -4 26 -10
36 -5 9 -33 82 -61 162 -28 80 -63 181 -79 225 -16 44 -32 92 -36 107 -3 16
-11 25 -17 21 -5 -3 -7 -1 -3 5 5 9 -17 84 -44 147 -5 11 -18 49 -30 85 -12
36 -25 74 -30 85 -5 11 -16 40 -24 65 -8 25 -34 97 -56 160 -23 63 -48 135
-56 160 -8 25 -19 54 -24 65 -5 11 -14 38 -21 60 -7 22 -17 45 -22 52 -5 7
-10 22 -12 35 -2 13 -19 68 -40 123 -38 104 -44 120 -46 133 0 4 -5 15 -11 25
-5 10 -11 26 -13 35 -2 9 -17 53 -34 97 -16 44 -43 118 -59 165 -17 47 -45
125 -62 174 -18 48 -33 93 -35 100 -1 6 -7 24 -13 39 -7 15 -15 39 -18 53 -3
13 -10 27 -15 30 -5 3 -9 13 -9 23 0 10 -8 36 -17 57 -9 22 -17 41 -18 44 -1
3 -5 19 -10 35 -4 17 -12 36 -18 43 -5 6 -6 12 -2 12 4 0 3 6 -2 13 -5 6 -16
32 -23 57 -7 25 -18 51 -23 58 -5 6 -6 12 -2 12 4 0 3 6 -2 13 -6 6 -14 26
-18 42 -10 36 -10 36 -18 55 -8 17 -67 180 -71 195 -2 6 -5 17 -8 25 -56 154
-128 359 -128 363 0 3 -5 18 -12 34 -6 15 -12 30 -13 33 -1 3 -4 12 -8 20 -13
33 -59 166 -61 175 -1 6 -5 16 -9 22 -5 7 -10 21 -12 30 -2 10 -17 55 -34 101
-17 45 -28 82 -25 82 3 0 -2 12 -10 28 -8 15 -25 56 -37 92 -23 70 -30 91 -47
130 -9 20 -32 90 -37 110 -1 3 -6 16 -12 30 -5 14 -22 61 -37 105 -15 44 -32
89 -37 100 -5 11 -11 30 -14 42 -2 12 -11 37 -19 55 -8 18 -19 49 -25 68 -5
19 -10 32 -11 28z"/>
</g>
</svg>
